<svg width="8" height="6" viewBox="0 0 8 6" fill="none" xmlns="http://www.w3.org/2000/svg">
<path opacity="0.9" d="M2.71875 5.87434L0.109375 3.26702C0.0364583 3.19372 0 3.09948 0 2.98429C0 2.86911 0.0364583 2.77487 0.109375 2.70157L0.6875 2.13613C0.760417 2.05236 0.851563 2.01048 0.960938 2.01048C1.07031 2.01048 1.16667 2.05236 1.25 2.13613L3 3.89529L6.75 0.125654C6.83333 0.0418849 6.92969 0 7.03906 0C7.14844 0 7.23958 0.0418849 7.3125 0.125654L7.89062 0.691099C7.96354 0.764398 8 0.858639 8 0.973822C8 1.08901 7.96354 1.18325 7.89062 1.25654L3.28125 5.87434C3.20833 5.95811 3.11458 6 3 6C2.88542 6 2.79167 5.95811 2.71875 5.87434Z" fill="white"/>
</svg>
